<svg width="512" height="192" viewBox="0 0 512 192" fill="currentColor" xmlns="http://www.w3.org/2000/svg">
<path d="M61.1 192C45 192 32 179 32 162.9C32 161 32.2 159.2 32.6 157.3C37.9 136.3 78.8 0 256 0C433.2 0 474.1 136.3 479.4 157.3C479.9 159.2 480 161 480 162.9C480 179 467 192 450.9 192H61.1ZM144 96C144 87.2 136.8 80 128 80C119.2 80 112 87.2 112 96C112 104.8 119.2 112 128 112C136.8 112 144 104.8 144 96ZM384 112C392.8 112 400 104.8 400 96C400 87.2 392.8 80 384 80C375.2 80 368 87.2 368 96C368 104.8 375.2 112 384 112ZM272 64C272 55.2 264.8 48 256 48C247.2 48 240 55.2 240 64C240 72.8 247.2 80 256 80C264.8 80 272 72.8 272 64Z" fill="currentColor"/>
</svg>
